<?xml version="1.0" encoding="utf-8"?>
<!-- Generator: Adobe Illustrator 18.1.0, SVG Export Plug-In . SVG Version: 6.00 Build 0)  -->
<svg version="1.1" id="chart-svg" xmlns="http://www.w3.org/2000/svg" xmlns:xlink="http://www.w3.org/1999/xlink" x="0px" y="0px"
	 viewBox="50.7 8.9 190 215.9" enable-background="new 50.7 8.9 190 215.9" xml:space="preserve">
<g>
	<g transform="translate(0,0)">
		<g>
			<g>
				<path fill="#83C2CF" fill-opacity="0.95" stroke="#83C2CF" stroke-opacity="0" d="M54.6,71.8l9.1-7.1l9.1-1.4l9.1-8.2l9.1-7.3
					l9.1-9.6l9.1-9.9l9.1,4.8l9.1,1.6l9.1,0.8l9.1-2.1l9.1-9.5l9.1-13.9l9.1-1.2l9.1,8.6L191,45l9.1,29.9l9.1,4.9l9.1-3.5l9.1-3.4
					l9.1-8.4v159.3h-9.1h-9.1h-9.1h-9.1H191h-9.1h-9.1h-9.1h-9.1h-9.1h-9.1h-9.1h-9.1h-9.1h-9.1H91h-9.1h-9.1h-9.1h-9.1V71.8z"/>
			</g>
			<g>
				<g transform="translate(0,0)">
					<g>
						<g>
							<g>
								<circle fill="#83C2CF" fill-opacity="0" stroke="#83C2CF" stroke-opacity="0" cx="54.6" cy="71.8" r="0.9"/>
								<circle fill="#83C2CF" fill-opacity="0" stroke="#83C2CF" stroke-opacity="0" cx="63.7" cy="64.7" r="0.9"/>
								<circle fill="#83C2CF" fill-opacity="0" stroke="#83C2CF" stroke-opacity="0" cx="72.8" cy="63.3" r="0.9"/>
								<circle fill="#83C2CF" fill-opacity="0" stroke="#83C2CF" stroke-opacity="0" cx="81.9" cy="55.1" r="0.9"/>
								<circle fill="#83C2CF" fill-opacity="0" stroke="#83C2CF" stroke-opacity="0" cx="91" cy="47.8" r="0.9"/>
								<circle fill="#83C2CF" fill-opacity="0" stroke="#83C2CF" stroke-opacity="0" cx="100.1" cy="38.2" r="0.9"/>
								<circle fill="#83C2CF" fill-opacity="0" stroke="#83C2CF" stroke-opacity="0" cx="109.2" cy="28.4" r="0.9"/>
								<circle fill="#83C2CF" fill-opacity="0" stroke="#83C2CF" stroke-opacity="0" cx="118.3" cy="33.2" r="0.9"/>
								<circle fill="#83C2CF" fill-opacity="0" stroke="#83C2CF" stroke-opacity="0" cx="127.3" cy="34.8" r="0.9"/>
								<circle fill="#83C2CF" fill-opacity="0" stroke="#83C2CF" stroke-opacity="0" cx="136.4" cy="35.5" r="0.9"/>
								<circle fill="#83C2CF" fill-opacity="0" stroke="#83C2CF" stroke-opacity="0" cx="145.5" cy="33.5" r="0.9"/>
								<circle fill="#83C2CF" fill-opacity="0" stroke="#83C2CF" stroke-opacity="0" cx="154.6" cy="23.9" r="0.9"/>
								<circle fill="#83C2CF" fill-opacity="0" stroke="#83C2CF" stroke-opacity="0" cx="163.7" cy="10.1" r="0.9"/>
								<circle fill="#83C2CF" fill-opacity="0" stroke="#83C2CF" stroke-opacity="0" cx="172.8" cy="8.9" r="0.9"/>
								<circle fill="#83C2CF" fill-opacity="0" stroke="#83C2CF" stroke-opacity="0" cx="181.9" cy="17.5" r="0.9"/>
								<circle fill="#83C2CF" fill-opacity="0" stroke="#83C2CF" stroke-opacity="0" cx="191" cy="45" r="0.9"/>
								<circle fill="#83C2CF" fill-opacity="0" stroke="#83C2CF" stroke-opacity="0" cx="200.1" cy="74.9" r="0.9"/>
								<circle fill="#83C2CF" fill-opacity="0" stroke="#83C2CF" stroke-opacity="0" cx="209.2" cy="79.8" r="0.9"/>
								<circle fill="#83C2CF" fill-opacity="0" stroke="#83C2CF" stroke-opacity="0" cx="218.2" cy="76.3" r="0.9"/>
								<circle fill="#83C2CF" fill-opacity="0" stroke="#83C2CF" stroke-opacity="0" cx="227.4" cy="72.9" r="0.9"/>
								<circle fill="#83C2CF" fill-opacity="0" stroke="#83C2CF" stroke-opacity="0" cx="236.4" cy="64.5" r="0.9"/>
							</g>
						</g>
					</g>
				</g>
			</g>
		</g>
	</g>
</g>
<g transform="translate(303)">
	<line fill="none" stroke="#FFFFFF" x1="-123.2" y1="223.8" x2="-123.2" y2="0.7"/>
</g>
</svg>
