<?xml version="1.0" encoding="utf-8"?>
<!-- Generator: Adobe Illustrator 18.1.0, SVG Export Plug-In . SVG Version: 6.00 Build 0)  -->
<svg version="1.1" id="Your_Icon" xmlns="http://www.w3.org/2000/svg" xmlns:xlink="http://www.w3.org/1999/xlink" x="0px" y="0px"
	 viewBox="51.7 -36 68.7 100" enable-background="new 51.7 -36 68.7 100" xml:space="preserve">
<circle fill="#F26A5E" cx="96" cy="38" r="3"/>
<circle fill="#F26A5E" cx="96" cy="28" r="3"/>
<circle fill="#F26A5E" cx="96" cy="18" r="3"/>
<circle fill="#F26A5E" cx="96" cy="8" r="3"/>
<circle fill="#F26A5E" cx="96" cy="-2" r="3"/>
<circle fill="#F26A5E" cx="86" cy="48" r="3"/>
<circle fill="#F26A5E" cx="86" cy="38" r="3"/>
<circle fill="#F26A5E" cx="86" cy="28" r="3"/>
<circle fill="#F26A5E" cx="86" cy="18" r="3"/>
<circle fill="#F26A5E" cx="86" cy="8" r="3"/>
<circle fill="#F26A5E" cx="86" cy="-2" r="3"/>
<circle fill="#F26A5E" cx="106" cy="28" r="3"/>
<circle fill="#F26A5E" cx="116" cy="28" r="3"/>
<circle fill="#F26A5E" cx="76" cy="38" r="3"/>
<circle fill="#F26A5E" cx="76" cy="28" r="3"/>
<circle fill="#F26A5E" cx="76" cy="18" r="3"/>
<circle fill="#F26A5E" cx="76" cy="8" r="3"/>
<circle fill="#F26A5E" cx="76" cy="-2" r="3"/>
<circle fill="#F26A5E" cx="96" cy="-12" r="3"/>
<circle fill="#F26A5E" cx="96" cy="-22" r="3"/>
<circle fill="#F26A5E" cx="96" cy="-32" r="3"/>
<circle fill="#F26A5E" cx="86" cy="-12" r="3"/>
<circle fill="#F26A5E" cx="86" cy="-22" r="3"/>
<circle fill="#F26A5E" cx="86" cy="-32" r="3"/>
<circle fill="#F26A5E" cx="76" cy="-12" r="3"/>
<circle fill="#F26A5E" cx="76" cy="-22" r="3"/>
<circle fill="#F26A5E" cx="76" cy="-32" r="3"/>
<circle fill="#F26A5E" cx="66" cy="28" r="3"/>
<circle fill="#F26A5E" cx="56" cy="28" r="3"/>
<circle fill="#F26A5E" cx="96" cy="48" r="3"/>
<circle fill="#F26A5E" cx="96" cy="38" r="3"/>
<circle fill="#F26A5E" cx="86" cy="58" r="3"/>
<circle fill="#F26A5E" cx="86" cy="48" r="3"/>
<circle fill="#F26A5E" cx="86" cy="38" r="3"/>
<circle fill="#F26A5E" cx="106" cy="38" r="3"/>
<circle fill="#F26A5E" cx="76" cy="48" r="3"/>
<circle fill="#F26A5E" cx="76" cy="38" r="3"/>
<circle fill="#F26A5E" cx="66" cy="38" r="3"/>
</svg>
