<?xml version="1.0" encoding="utf-8"?>
<!-- Generator: Adobe Illustrator 18.1.0, SVG Export Plug-In . SVG Version: 6.00 Build 0)  -->
<svg version="1.1" id="chart-svg" xmlns="http://www.w3.org/2000/svg" xmlns:xlink="http://www.w3.org/1999/xlink" x="0px" y="0px"
	 viewBox="0 0 960 560" enable-background="new 0 0 960 560" xml:space="preserve">
<line display="none" fill="none" stroke="#D2D2D2" x1="194.8" y1="400" x2="194.8" y2="30"/>
<line display="none" fill="none" stroke="#D2D2D2" x1="329.6" y1="400" x2="329.6" y2="30"/>
<line display="none" fill="none" stroke="#D2D2D2" x1="464.4" y1="400" x2="464.4" y2="30"/>
<line display="none" fill="none" stroke="#D2D2D2" x1="599.2" y1="400" x2="599.2" y2="30"/>
<line display="none" fill="none" stroke="#D2D2D2" x1="700.3" y1="400" x2="700.3" y2="30"/>
<path fill="none" stroke="#000000" stroke-opacity="0" d="M2.1,539.4L2.1,539.4h954.3l0,0"/>
<line fill="none" stroke="#D2D2D2" x1="956.5" y1="539.4" x2="2.1" y2="539.4"/>
<line fill="none" stroke="#D2D2D2" x1="942.1" y1="496.8" x2="2.1" y2="496.8"/>
<line fill="none" stroke="#D2D2D2" x1="942.1" y1="447.6" x2="2.1" y2="447.6"/>
<line fill="none" stroke="#D2D2D2" x1="942.1" y1="398.5" x2="2.1" y2="398.5"/>
<line fill="none" stroke="#D2D2D2" x1="942.1" y1="349.4" x2="2.1" y2="349.4"/>
<line fill="none" stroke="#D2D2D2" x1="942.1" y1="300.3" x2="2.1" y2="300.3"/>
<line fill="none" stroke="#D2D2D2" x1="942.1" y1="251.1" x2="2.1" y2="251.1"/>
<line fill="none" stroke="#D2D2D2" x1="942.1" y1="202" x2="2.1" y2="202"/>
<line fill="none" stroke="#D2D2D2" x1="942.1" y1="152.9" x2="2.1" y2="152.9"/>
<line fill="none" stroke="#D2D2D2" x1="942.1" y1="103.8" x2="2.1" y2="103.8"/>
<line fill="none" stroke="#D2D2D2" x1="942.1" y1="54.6" x2="2.1" y2="54.6"/>
<path fill="none" stroke="#000000" stroke-opacity="0.75" d="M956.5,15.5L956.5,15.5v523.9l0,0"/>
<circle fill="#F1EEF6" fill-opacity="0" stroke="#F1EEF6" stroke-opacity="0" cx="2.1" cy="201.6" r="3.1"/>
<circle fill="#F1EEF6" fill-opacity="0" stroke="#F1EEF6" stroke-opacity="0" cx="49.1" cy="187.6" r="3.1"/>
<circle fill="#F1EEF6" fill-opacity="0" stroke="#F1EEF6" stroke-opacity="0" cx="96.1" cy="178.7" r="3.1"/>
<circle fill="#F1EEF6" fill-opacity="0" stroke="#F1EEF6" stroke-opacity="0" cx="143.2" cy="170.5" r="3.1"/>
<circle fill="#F1EEF6" fill-opacity="0" stroke="#F1EEF6" stroke-opacity="0" cx="190.1" cy="165.6" r="3.1"/>
<circle fill="#F1EEF6" fill-opacity="0" stroke="#F1EEF6" stroke-opacity="0" cx="237.1" cy="157.9" r="3.1"/>
<circle fill="#F1EEF6" fill-opacity="0" stroke="#F1EEF6" stroke-opacity="0" cx="284.1" cy="147.2" r="3.1"/>
<circle fill="#F1EEF6" fill-opacity="0" stroke="#F1EEF6" stroke-opacity="0" cx="331.2" cy="139" r="3.1"/>
<circle fill="#F1EEF6" fill-opacity="0" stroke="#F1EEF6" stroke-opacity="0" cx="378.1" cy="132.2" r="3.1"/>
<circle fill="#F1EEF6" fill-opacity="0" stroke="#F1EEF6" stroke-opacity="0" cx="425.1" cy="126.8" r="3.1"/>
<circle fill="#F1EEF6" fill-opacity="0" stroke="#F1EEF6" stroke-opacity="0" cx="472.1" cy="116.7" r="3.1"/>
<circle fill="#F1EEF6" fill-opacity="0" stroke="#F1EEF6" stroke-opacity="0" cx="519.2" cy="103.8" r="3.1"/>
<circle fill="#F1EEF6" fill-opacity="0" stroke="#F1EEF6" stroke-opacity="0" cx="566.1" cy="92.7" r="3.1"/>
<circle fill="#F1EEF6" fill-opacity="0" stroke="#F1EEF6" stroke-opacity="0" cx="613.1" cy="78.3" r="3.1"/>
<circle fill="#F1EEF6" fill-opacity="0" stroke="#F1EEF6" stroke-opacity="0" cx="660.1" cy="71.2" r="3.1"/>
<circle fill="#F1EEF6" fill-opacity="0" stroke="#F1EEF6" stroke-opacity="0" cx="707.2" cy="81" r="3.1"/>
<circle fill="#F1EEF6" fill-opacity="0" stroke="#F1EEF6" stroke-opacity="0" cx="754.1" cy="89.1" r="3.1"/>
<circle fill="#F1EEF6" fill-opacity="0" stroke="#F1EEF6" stroke-opacity="0" cx="801.1" cy="79.8" r="3.1"/>
<circle fill="#F1EEF6" fill-opacity="0" stroke="#F1EEF6" stroke-opacity="0" cx="848.1" cy="62.9" r="3.1"/>
<circle fill="#F1EEF6" fill-opacity="0" stroke="#F1EEF6" stroke-opacity="0" cx="895.2" cy="45.7" r="3.1"/>
<circle fill="#F1EEF6" fill-opacity="0" stroke="#F1EEF6" stroke-opacity="0" cx="956.5" cy="15.5" r="3.2"/>
<g>
	<g transform="translate(0,0)">
		<g>
			<g>
				<path fill="#F26A5E" fill-opacity="0.95" stroke="#F1EEF6" stroke-opacity="0" d="M3.8,26.3l47.6-5.1l47.6,11.4l47.7,4.3
					l47.6,1.8l47.6,9.6l47.6,10.1l47.7,10.4l47.6,31.5l47.6,15.6l47.6,18.1l47.7,8.5l47.6,6.4l47.6,8.2l47.6,6.4l47.7,22.7
					l47.6,19.3l47.6,1.2l47.6,0.9l47.7-2l47.6-0.8v334.6H908h-47.7h-47.6h-47.6h-47.6h-47.7h-47.6h-47.6h-47.6h-47.7H432h-47.6
					h-47.6h-47.7h-47.6h-47.6h-47.6H98.9H51.3H3.8V26.3z"/>
			</g>
			<g>
				<g transform="translate(0,0)">
					<g>
						<g>
							<g>
								<ellipse fill="#F26A5E" fill-opacity="0" stroke="#F1EEF6" stroke-opacity="0" cx="3.8" cy="26.3" rx="3.2" ry="3.2"/>
								<ellipse fill="#F26A5E" fill-opacity="0" stroke="#F1EEF6" stroke-opacity="0" cx="51.3" cy="21.2" rx="3.2" ry="3.2"/>
								<ellipse fill="#F26A5E" fill-opacity="0" stroke="#F1EEF6" stroke-opacity="0" cx="98.9" cy="32.5" rx="3.2" ry="3.2"/>
								<ellipse fill="#F26A5E" fill-opacity="0" stroke="#F1EEF6" stroke-opacity="0" cx="146.6" cy="36.8" rx="3.2" ry="3.2"/>
								<ellipse fill="#F26A5E" fill-opacity="0" stroke="#F1EEF6" stroke-opacity="0" cx="194.1" cy="38.6" rx="3.2" ry="3.2"/>
								<ellipse fill="#F26A5E" fill-opacity="0" stroke="#F1EEF6" stroke-opacity="0" cx="241.7" cy="48.2" rx="3.2" ry="3.2"/>
								<ellipse fill="#F26A5E" fill-opacity="0" stroke="#F1EEF6" stroke-opacity="0" cx="289.2" cy="58.3" rx="3.2" ry="3.2"/>
								<ellipse fill="#F26A5E" fill-opacity="0" stroke="#F1EEF6" stroke-opacity="0" cx="336.9" cy="68.7" rx="3.2" ry="3.2"/>
								<ellipse fill="#F26A5E" fill-opacity="0" stroke="#F1EEF6" stroke-opacity="0" cx="384.5" cy="100.1" rx="3.2" ry="3.2"/>
								<ellipse fill="#F26A5E" fill-opacity="0" stroke="#F1EEF6" stroke-opacity="0" cx="432" cy="115.7" rx="3.2" ry="3.2"/>
								<ellipse fill="#F26A5E" fill-opacity="0" stroke="#F1EEF6" stroke-opacity="0" cx="479.6" cy="133.9" rx="3.2" ry="3.2"/>
								<ellipse fill="#F26A5E" fill-opacity="0" stroke="#F1EEF6" stroke-opacity="0" cx="527.3" cy="142.4" rx="3.2" ry="3.2"/>
								<ellipse fill="#F26A5E" fill-opacity="0" stroke="#F1EEF6" stroke-opacity="0" cx="574.8" cy="148.8" rx="3.2" ry="3.2"/>
								<ellipse fill="#F26A5E" fill-opacity="0" stroke="#F1EEF6" stroke-opacity="0" cx="622.4" cy="157" rx="3.2" ry="3.2"/>
								<ellipse fill="#F26A5E" fill-opacity="0" stroke="#F1EEF6" stroke-opacity="0" cx="669.9" cy="163.4" rx="3.2" ry="3.2"/>
								<ellipse fill="#F26A5E" fill-opacity="0" stroke="#F1EEF6" stroke-opacity="0" cx="717.6" cy="186.1" rx="3.2" ry="3.2"/>
								<ellipse fill="#F26A5E" fill-opacity="0" stroke="#F1EEF6" stroke-opacity="0" cx="765.2" cy="205.4" rx="3.2" ry="3.2"/>
								<ellipse fill="#F26A5E" fill-opacity="0" stroke="#F1EEF6" stroke-opacity="0" cx="812.7" cy="206.6" rx="3.2" ry="3.2"/>
								<ellipse fill="#F26A5E" fill-opacity="0" stroke="#F1EEF6" stroke-opacity="0" cx="860.3" cy="207.5" rx="3.2" ry="3.2"/>
								<ellipse fill="#F26A5E" fill-opacity="0" stroke="#F1EEF6" stroke-opacity="0" cx="908" cy="205.6" rx="3.2" ry="3.2"/>
								<ellipse fill="#F26A5E" fill-opacity="0" stroke="#F1EEF6" stroke-opacity="0" cx="955.5" cy="204.8" rx="3.2" ry="3.2"/>
							</g>
						</g>
					</g>
				</g>
			</g>
		</g>
	</g>
</g>
<rect x="2.1" y="15.5" fill="none" stroke="#000000" stroke-width="2" width="954.3" height="523.9"/>
</svg>
