<?xml version="1.0" encoding="utf-8"?>
<!-- Generator: Adobe Illustrator 18.1.0, SVG Export Plug-In . SVG Version: 6.00 Build 0)  -->
<svg version="1.1" id="chart-svg" xmlns="http://www.w3.org/2000/svg" xmlns:xlink="http://www.w3.org/1999/xlink" x="0px" y="0px"
	 viewBox="0 0 960 560" enable-background="new 0 0 960 560" xml:space="preserve">
<line display="none" fill="none" stroke="#D2D2D2" x1="194.8" y1="400" x2="194.8" y2="30"/>
<line display="none" fill="none" stroke="#D2D2D2" x1="329.6" y1="400" x2="329.6" y2="30"/>
<line display="none" fill="none" stroke="#D2D2D2" x1="464.4" y1="400" x2="464.4" y2="30"/>
<line display="none" fill="none" stroke="#D2D2D2" x1="599.2" y1="400" x2="599.2" y2="30"/>
<line display="none" fill="none" stroke="#D2D2D2" x1="700.3" y1="400" x2="700.3" y2="30"/>
<path fill="none" stroke="#000000" stroke-opacity="0" d="M2.1,539.4L2.1,539.4h954.3l0,0"/>
<line fill="none" stroke="#D2D2D2" x1="956.5" y1="539.4" x2="2.1" y2="539.4"/>
<line fill="none" stroke="#D2D2D2" x1="942.1" y1="496.8" x2="2.1" y2="496.8"/>
<line fill="none" stroke="#D2D2D2" x1="942.1" y1="447.6" x2="2.1" y2="447.6"/>
<line fill="none" stroke="#D2D2D2" x1="942.1" y1="398.5" x2="2.1" y2="398.5"/>
<line fill="none" stroke="#D2D2D2" x1="942.1" y1="349.4" x2="2.1" y2="349.4"/>
<line fill="none" stroke="#D2D2D2" x1="942.1" y1="300.3" x2="2.1" y2="300.3"/>
<line fill="none" stroke="#D2D2D2" x1="942.1" y1="251.1" x2="2.1" y2="251.1"/>
<line fill="none" stroke="#D2D2D2" x1="942.1" y1="202" x2="2.1" y2="202"/>
<line fill="none" stroke="#D2D2D2" x1="942.1" y1="152.9" x2="2.1" y2="152.9"/>
<line fill="none" stroke="#D2D2D2" x1="942.1" y1="103.8" x2="2.1" y2="103.8"/>
<line fill="none" stroke="#D2D2D2" x1="942.1" y1="54.6" x2="2.1" y2="54.6"/>
<path fill="none" stroke="#000000" stroke-opacity="0.75" d="M956.5,15.5L956.5,15.5v523.9l0,0"/>
<circle fill="#F1EEF6" fill-opacity="0" stroke="#F1EEF6" stroke-opacity="0" cx="2.1" cy="201.6" r="3.1"/>
<circle fill="#F1EEF6" fill-opacity="0" stroke="#F1EEF6" stroke-opacity="0" cx="49.1" cy="187.6" r="3.1"/>
<circle fill="#F1EEF6" fill-opacity="0" stroke="#F1EEF6" stroke-opacity="0" cx="96.1" cy="178.7" r="3.1"/>
<circle fill="#F1EEF6" fill-opacity="0" stroke="#F1EEF6" stroke-opacity="0" cx="143.2" cy="170.5" r="3.1"/>
<circle fill="#F1EEF6" fill-opacity="0" stroke="#F1EEF6" stroke-opacity="0" cx="190.1" cy="165.6" r="3.1"/>
<circle fill="#F1EEF6" fill-opacity="0" stroke="#F1EEF6" stroke-opacity="0" cx="237.1" cy="157.9" r="3.1"/>
<circle fill="#F1EEF6" fill-opacity="0" stroke="#F1EEF6" stroke-opacity="0" cx="284.1" cy="147.2" r="3.1"/>
<circle fill="#F1EEF6" fill-opacity="0" stroke="#F1EEF6" stroke-opacity="0" cx="331.2" cy="139" r="3.1"/>
<circle fill="#F1EEF6" fill-opacity="0" stroke="#F1EEF6" stroke-opacity="0" cx="378.1" cy="132.2" r="3.1"/>
<circle fill="#F1EEF6" fill-opacity="0" stroke="#F1EEF6" stroke-opacity="0" cx="425.1" cy="126.8" r="3.1"/>
<circle fill="#F1EEF6" fill-opacity="0" stroke="#F1EEF6" stroke-opacity="0" cx="472.1" cy="116.7" r="3.1"/>
<circle fill="#F1EEF6" fill-opacity="0" stroke="#F1EEF6" stroke-opacity="0" cx="519.2" cy="103.8" r="3.1"/>
<circle fill="#F1EEF6" fill-opacity="0" stroke="#F1EEF6" stroke-opacity="0" cx="566.1" cy="92.7" r="3.1"/>
<circle fill="#F1EEF6" fill-opacity="0" stroke="#F1EEF6" stroke-opacity="0" cx="613.1" cy="78.3" r="3.1"/>
<circle fill="#F1EEF6" fill-opacity="0" stroke="#F1EEF6" stroke-opacity="0" cx="660.1" cy="71.2" r="3.1"/>
<circle fill="#F1EEF6" fill-opacity="0" stroke="#F1EEF6" stroke-opacity="0" cx="707.2" cy="81" r="3.1"/>
<circle fill="#F1EEF6" fill-opacity="0" stroke="#F1EEF6" stroke-opacity="0" cx="754.1" cy="89.1" r="3.1"/>
<circle fill="#F1EEF6" fill-opacity="0" stroke="#F1EEF6" stroke-opacity="0" cx="801.1" cy="79.8" r="3.1"/>
<circle fill="#F1EEF6" fill-opacity="0" stroke="#F1EEF6" stroke-opacity="0" cx="848.1" cy="62.9" r="3.1"/>
<circle fill="#F1EEF6" fill-opacity="0" stroke="#F1EEF6" stroke-opacity="0" cx="895.2" cy="45.7" r="3.1"/>
<g>
	<g transform="translate(0,0)">
		<g>
			<g>
				<path fill="#91CB7C" fill-opacity="0.95" stroke="#CCD2FE" stroke-opacity="0" d="M3.2,404.6l47.6-17.4l47.6-23.5l47.7-28.1
					l47.6-34.9l47.6-44.8l47.7-36.9l47.7-33l47.6,34.3l47.6,22.1l47.6-2.4l47.7-13.7l47.6-18.3l47.6-20.4l47.6-27.6l47.7-2.5
					l47.6,2.4l47.6-18.4l47.6-21.5l47.7-24.6L955.7,79v459.5h-47.6h-47.7h-47.6h-47.6h-47.6h-47.7h-47.6H575h-47.6h-47.7h-47.6
					h-47.6H337h-48.2h-47.6h-47.6h-47.6H98.3H50.8H3.2V404.6z"/>
			</g>
			<g>
				<g transform="translate(0,0)">
					<g>
						<g>
							<g>
								<circle fill="#91CB7C" fill-opacity="0" stroke="#CCD2FE" stroke-opacity="0" cx="3.2" cy="404.6" r="2.9"/>
								<circle fill="#91CB7C" fill-opacity="0" stroke="#CCD2FE" stroke-opacity="0" cx="50.8" cy="387.1" r="2.9"/>
								<circle fill="#91CB7C" fill-opacity="0" stroke="#CCD2FE" stroke-opacity="0" cx="98.3" cy="363.6" r="2.9"/>
								<circle fill="#91CB7C" fill-opacity="0" stroke="#CCD2FE" stroke-opacity="0" cx="146.1" cy="335.6" r="2.9"/>
								<circle fill="#91CB7C" fill-opacity="0" stroke="#CCD2FE" stroke-opacity="0" cx="193.7" cy="300.7" r="2.9"/>
								<circle fill="#91CB7C" fill-opacity="0" stroke="#CCD2FE" stroke-opacity="0" cx="241.3" cy="255.8" r="2.9"/>
								<circle fill="#91CB7C" fill-opacity="0" stroke="#CCD2FE" stroke-opacity="0" cx="288.8" cy="219.1" r="2.9"/>
								<circle fill="#91CB7C" fill-opacity="0" stroke="#CCD2FE" stroke-opacity="0" cx="336.6" cy="186" r="2.9"/>
								<circle fill="#91CB7C" fill-opacity="0" stroke="#CCD2FE" stroke-opacity="0" cx="384.2" cy="220.3" r="2.9"/>
								<circle fill="#91CB7C" fill-opacity="0" stroke="#CCD2FE" stroke-opacity="0" cx="431.8" cy="242.4" r="2.9"/>
								<circle fill="#91CB7C" fill-opacity="0" stroke="#CCD2FE" stroke-opacity="0" cx="479.3" cy="240.1" r="2.9"/>
								<circle fill="#91CB7C" fill-opacity="0" stroke="#CCD2FE" stroke-opacity="0" cx="527.1" cy="226.4" r="2.9"/>
								<circle fill="#91CB7C" fill-opacity="0" stroke="#CCD2FE" stroke-opacity="0" cx="574.7" cy="208.1" r="2.9"/>
								<circle fill="#91CB7C" fill-opacity="0" stroke="#CCD2FE" stroke-opacity="0" cx="622.3" cy="187.9" r="2.9"/>
								<circle fill="#91CB7C" fill-opacity="0" stroke="#CCD2FE" stroke-opacity="0" cx="669.8" cy="160.3" r="2.9"/>
								<circle fill="#91CB7C" fill-opacity="0" stroke="#CCD2FE" stroke-opacity="0" cx="717.6" cy="157.9" r="2.9"/>
								<circle fill="#91CB7C" fill-opacity="0" stroke="#CCD2FE" stroke-opacity="0" cx="765.2" cy="160.2" r="2.9"/>
								<circle fill="#91CB7C" fill-opacity="0" stroke="#CCD2FE" stroke-opacity="0" cx="812.8" cy="141.8" r="2.9"/>
								<circle fill="#91CB7C" fill-opacity="0" stroke="#CCD2FE" stroke-opacity="0" cx="860.3" cy="120.5" r="2.9"/>
								<circle fill="#91CB7C" fill-opacity="0" stroke="#CCD2FE" stroke-opacity="0" cx="908.1" cy="95.9" r="2.9"/>
								<circle fill="#91CB7C" fill-opacity="0" stroke="#CCD2FE" stroke-opacity="0" cx="955.7" cy="79" r="2.9"/>
							</g>
						</g>
					</g>
				</g>
			</g>
		</g>
	</g>
</g>
<circle fill="#F1EEF6" fill-opacity="0" stroke="#F1EEF6" stroke-opacity="0" cx="956.5" cy="15.5" r="3.2"/>
<rect x="2.1" y="15.5" fill="none" stroke="#000000" stroke-width="2" width="954.3" height="523.9"/>
</svg>
