<?xml version="1.0" encoding="utf-8"?>
<!-- Generator: Adobe Illustrator 18.1.0, SVG Export Plug-In . SVG Version: 6.00 Build 0)  -->
<svg version="1.1" id="Your_Icon" xmlns="http://www.w3.org/2000/svg" xmlns:xlink="http://www.w3.org/1999/xlink" x="0px" y="0px"
	 viewBox="460.8 871.6 208.4 352.4" enable-background="new 460.8 871.6 208.4 352.4" xml:space="preserve">
<circle fill="#91CB7C" cx="534.6" cy="942.2" r="9"/>
<circle fill="#91CB7C" cx="534.6" cy="972.2" r="9"/>
<circle fill="#91CB7C" cx="534.6" cy="1002.1" r="9"/>
<circle fill="#91CB7C" cx="534.6" cy="1032" r="9"/>
<circle fill="#91CB7C" cx="534.6" cy="1062" r="9"/>
<circle fill="#91CB7C" cx="564.6" cy="912.3" r="9"/>
<circle fill="#91CB7C" cx="564.6" cy="942.2" r="9"/>
<circle fill="#91CB7C" cx="564.6" cy="972.2" r="9"/>
<circle fill="#91CB7C" cx="564.6" cy="1002.1" r="9"/>
<circle fill="#91CB7C" cx="564.6" cy="1032" r="9"/>
<circle fill="#91CB7C" cx="564.6" cy="1062" r="9"/>
<circle fill="#91CB7C" cx="504.7" cy="972.2" r="9"/>
<circle fill="#91CB7C" cx="474.8" cy="972.2" r="9"/>
<circle fill="#91CB7C" cx="594.5" cy="942.2" r="9"/>
<circle fill="#91CB7C" cx="594.5" cy="972.2" r="9"/>
<circle fill="#91CB7C" cx="594.5" cy="1002.1" r="9"/>
<circle fill="#91CB7C" cx="594.5" cy="1032" r="9"/>
<circle fill="#91CB7C" cx="594.5" cy="1062" r="9"/>
<circle fill="#91CB7C" cx="534.6" cy="1091.9" r="9"/>
<circle fill="#91CB7C" cx="534.6" cy="1123.3" r="9"/>
<circle fill="#91CB7C" cx="564.6" cy="1091.9" r="9"/>
<circle fill="#91CB7C" cx="564.6" cy="1123.3" r="9"/>
<circle fill="#91CB7C" cx="594.5" cy="1091.9" r="9"/>
<circle fill="#91CB7C" cx="594.5" cy="1123.3" r="9"/>
<circle fill="#91CB7C" cx="624.4" cy="972.2" r="9"/>
<circle fill="#91CB7C" cx="654.3" cy="972.2" r="9"/>
<circle fill="#91CB7C" cx="534.6" cy="912.3" r="9"/>
<circle fill="#91CB7C" cx="534.6" cy="942.2" r="9"/>
<circle fill="#91CB7C" cx="564.6" cy="882.4" r="9"/>
<circle fill="#91CB7C" cx="564.6" cy="912.3" r="9"/>
<circle fill="#91CB7C" cx="564.6" cy="942.2" r="9"/>
<circle fill="#91CB7C" cx="504.7" cy="942.2" r="9"/>
<circle fill="#91CB7C" cx="594.5" cy="912.3" r="9"/>
<circle fill="#91CB7C" cx="594.5" cy="942.2" r="9"/>
<circle fill="#91CB7C" cx="624.4" cy="942.2" r="9"/>
<circle fill="#F26A5E" cx="594.5" cy="1153.4" r="9"/>
<circle fill="#F26A5E" cx="594.5" cy="1123.5" r="9"/>
<circle fill="#F26A5E" cx="594.5" cy="1092" r="9"/>
<circle fill="#F26A5E" cx="594.5" cy="1062.1" r="9"/>
<circle fill="#F26A5E" cx="564.6" cy="1183.3" r="9"/>
<circle fill="#F26A5E" cx="564.6" cy="1153.4" r="9"/>
<circle fill="#F26A5E" cx="564.6" cy="1123.5" r="9"/>
<circle fill="#F26A5E" cx="564.6" cy="1092" r="9"/>
<circle fill="#F26A5E" cx="564.6" cy="1062.1" r="9"/>
<circle fill="#F26A5E" cx="624.4" cy="1123.5" r="9"/>
<circle fill="#F26A5E" cx="654.3" cy="1123.5" r="9"/>
<circle fill="#F26A5E" cx="534.6" cy="1153.4" r="9"/>
<circle fill="#F26A5E" cx="534.6" cy="1123.5" r="9"/>
<circle fill="#F26A5E" cx="534.6" cy="1092" r="9"/>
<circle fill="#F26A5E" cx="594.5" cy="1032.2" r="9"/>
<circle fill="#F26A5E" cx="504.7" cy="1123.5" r="9"/>
<circle fill="#F26A5E" cx="474.8" cy="1123.5" r="9"/>
<circle fill="#F26A5E" cx="594.5" cy="1183.3" r="9"/>
<circle fill="#F26A5E" cx="594.5" cy="1153.4" r="9"/>
<circle fill="#F26A5E" cx="564.6" cy="1213.3" r="9"/>
<circle fill="#F26A5E" cx="564.6" cy="1183.3" r="9"/>
<circle fill="#F26A5E" cx="564.6" cy="1153.4" r="9"/>
<circle fill="#F26A5E" cx="624.4" cy="1153.4" r="9"/>
<circle fill="#F26A5E" cx="534.6" cy="1183.3" r="9"/>
<circle fill="#F26A5E" cx="534.6" cy="1153.4" r="9"/>
<circle fill="#F26A5E" cx="504.7" cy="1153.4" r="9"/>
</svg>
